<svg xmlns="http://www.w3.org/2000/svg" viewBox="0 0 820 610" width="820" height="610" font-family="Helvetica, Arial, sans-serif">
<defs><marker id="arrow" viewBox="0 0 10 10" refX="9" refY="5" markerWidth="7" markerHeight="7" orient="auto-start-reverse"><path d="M1 1 L9 5 L1 9" fill="none" stroke="#555555" stroke-width="1.6" stroke-linecap="round" stroke-linejoin="round"/></marker></defs>
<rect x="0" y="0" width="820" height="610" fill="#ffffff"/>
<text x="410.0" y="26" text-anchor="middle" font-size="15" font-weight="bold" fill="#1a1a1a">train-repo — Boucle monitoring / réentraînement</text>
<path d="M 420 123 L 420 149 L 420 149 L 420 175" fill="none" stroke="#555555" stroke-width="1.6" marker-end="url(#arrow)"/>
<path d="M 495 212 L 560 212 L 560 213 L 625 213" fill="none" stroke="#555555" stroke-width="1.6" marker-end="url(#arrow)"/>
<rect x="546" y="204" width="28" height="16" rx="3" fill="#ffffff" stroke="#dddddd" stroke-width="0.7"/>
<text x="560" y="212" text-anchor="middle" dominant-baseline="central" font-family="Helvetica, Arial, sans-serif" font-size="10" fill="#333333">non</text>
<path d="M 420 249 L 420 274 L 420 274 L 420 300" fill="none" stroke="#555555" stroke-width="1.6" marker-end="url(#arrow)"/>
<rect x="353" y="266" width="134" height="16" rx="3" fill="#ffffff" stroke="#dddddd" stroke-width="0.7"/>
<text x="420" y="274" text-anchor="middle" dominant-baseline="central" font-family="Helvetica, Arial, sans-serif" font-size="10" fill="#333333">oui — gh workflow run</text>
<path d="M 420 378 L 420 402 L 420 402 L 420 425" fill="none" stroke="#555555" stroke-width="1.6" marker-end="url(#arrow)"/>
<path d="M 420 481 L 420 503 L 420 503 L 420 525" fill="none" stroke="#555555" stroke-width="1.6" stroke-dasharray="6 4" marker-end="url(#arrow)"/>
<rect x="362" y="494" width="116" height="16" rx="3" fill="#ffffff" stroke="#dddddd" stroke-width="0.7"/>
<text x="420" y="503" text-anchor="middle" dominant-baseline="central" font-family="Helvetica, Arial, sans-serif" font-size="10" fill="#333333">promotion manuelle</text>
<path d="M 310 555 L 250 555 L 250 84 L 280 84" fill="none" stroke="#555555" stroke-width="1.6" stroke-dasharray="6 4" marker-end="url(#arrow)"/>
<rect x="174" y="310" width="152" height="16" rx="3" fill="#ffffff" stroke="#dddddd" stroke-width="0.7"/>
<text x="250" y="320" text-anchor="middle" dominant-baseline="central" font-family="Helvetica, Arial, sans-serif" font-size="10" fill="#333333">prédictions de prod (S3)</text>
<rect x="280" y="45" width="280" height="78" rx="8" fill="#e1d5e7" stroke="#9673a6" stroke-width="1.5"/>
<text x="420.0" y="68.0" text-anchor="middle" dominant-baseline="central" font-family="Helvetica, Arial, sans-serif" font-size="12" font-weight="bold" fill="#1a1a1a">monitoring.yaml → run_monitoring.py</text>
<text x="420.0" y="84.0" text-anchor="middle" dominant-baseline="central" font-family="Helvetica, Arial, sans-serif" font-size="10.5" font-weight="normal" fill="#444444">Evidently : réf (train) vs prod (S3)</text>
<text x="420.0" y="100.0" text-anchor="middle" dominant-baseline="central" font-family="Helvetica, Arial, sans-serif" font-size="10.5" font-weight="normal" fill="#444444">cron + manuel</text>
<polygon points="420.0,175 495,212.0 420.0,249 345,212.0" fill="#fff2cc" stroke="#d6b656" stroke-width="1.5"/>
<text x="420.0" y="212.0" text-anchor="middle" dominant-baseline="central" font-family="Helvetica, Arial, sans-serif" font-size="12" font-weight="bold" fill="#1a1a1a">dérive ≥ seuil ?</text>
<rect x="625" y="185" width="180" height="56" rx="8" fill="#f5f5f5" stroke="#666666" stroke-width="1.5"/>
<text x="715.0" y="205.0" text-anchor="middle" dominant-baseline="central" font-family="Helvetica, Arial, sans-serif" font-size="12" font-weight="bold" fill="#1a1a1a">Rapport archivé</text>
<text x="715.0" y="221.0" text-anchor="middle" dominant-baseline="central" font-family="Helvetica, Arial, sans-serif" font-size="10.5" font-weight="normal" fill="#444444">artefact + S3</text>
<rect x="310" y="300" width="220" height="78" rx="8" fill="#ffe6cc" stroke="#d79b00" stroke-width="1.5"/>
<text x="420.0" y="323.0" text-anchor="middle" dominant-baseline="central" font-family="Helvetica, Arial, sans-serif" font-size="12" font-weight="bold" fill="#1a1a1a">train.yaml → train.py</text>
<text x="420.0" y="339.0" text-anchor="middle" dominant-baseline="central" font-family="Helvetica, Arial, sans-serif" font-size="10.5" font-weight="normal" fill="#444444">split · tuning · métriques</text>
<text x="420.0" y="355.0" text-anchor="middle" dominant-baseline="central" font-family="Helvetica, Arial, sans-serif" font-size="10.5" font-weight="normal" fill="#444444">alias = challenger</text>
<rect x="310" y="425" width="220" height="56" rx="8" fill="#d5e8d4" stroke="#82b366" stroke-width="1.5"/>
<text x="420.0" y="445.0" text-anchor="middle" dominant-baseline="central" font-family="Helvetica, Arial, sans-serif" font-size="12" font-weight="bold" fill="#1a1a1a">MLflow Registry</text>
<text x="420.0" y="461.0" text-anchor="middle" dominant-baseline="central" font-family="Helvetica, Arial, sans-serif" font-size="10.5" font-weight="normal" fill="#444444">version + alias challenger</text>
<rect x="310" y="525" width="220" height="60" rx="8" fill="#dae8fc" stroke="#6c8ebf" stroke-width="1.5"/>
<text x="420.0" y="547.0" text-anchor="middle" dominant-baseline="central" font-family="Helvetica, Arial, sans-serif" font-size="12" font-weight="bold" fill="#1a1a1a">API Modèle sert @production</text>
<text x="420.0" y="563.0" text-anchor="middle" dominant-baseline="central" font-family="Helvetica, Arial, sans-serif" font-size="10.5" font-weight="normal" fill="#444444">promotion MANUELLE</text>
</svg>